<svg width="157" height="60" viewBox="0 0 157 60" fill="none" xmlns="http://www.w3.org/2000/svg">
<path d="M17.4122 42.738C17.4122 41.6368 17.7859 40.7126 18.5331 39.9653C19.3197 39.1787 20.2636 38.7855 21.3648 38.7855H30.3908L28.857 34.4199C28.2277 32.8074 27.5984 31.2933 26.9692 29.8774C26.3792 28.4223 25.691 27.1047 24.9044 25.9249C24.1965 24.745 23.3902 24.1157 22.4857 24.0371C21.5418 24.1157 20.6962 24.745 19.9489 25.9249C19.2017 27.1047 18.5134 28.4223 17.8842 29.8774C17.2942 31.2933 16.6846 32.8074 16.0554 34.4199L10.451 49.7582C10.0577 50.5842 9.54642 51.2724 8.91716 51.823C8.32723 52.3343 7.42266 52.5899 6.20346 52.5899C5.06292 52.5899 4.11902 52.1966 3.37177 51.4101C2.66385 50.6235 2.34922 49.6796 2.42788 48.5784C2.4672 48.0671 2.58519 47.5952 2.78184 47.1625L9.27112 30.4084C11.0803 26.0035 12.8894 22.4443 14.6985 19.7306C16.4683 17.0562 19.064 15.6993 22.4857 15.66C25.868 15.6993 28.444 17.0562 30.2138 19.7306C32.0229 22.3656 33.8321 25.9249 35.6412 30.4084L42.1305 47.1625C42.3271 47.5952 42.4451 48.0671 42.4845 48.5784C42.5631 49.6796 42.2288 50.6235 41.4816 51.4101C40.7737 52.1966 39.8494 52.5899 38.7089 52.5899C37.411 52.5899 36.4475 52.3343 35.8182 51.823C35.2283 51.2724 34.7367 50.5842 34.3434 49.7582L33.2225 46.6906H21.3648C20.2636 46.6906 19.3393 46.2973 18.5921 45.5107C17.8055 44.7635 17.4122 43.8392 17.4122 42.738ZM52.4544 24.509C53.5163 24.5484 54.4208 24.9416 55.1681 25.6889C55.9153 26.3968 56.3086 27.2817 56.3479 28.3436V48.7554C56.112 51.1151 54.8141 52.3933 52.4544 52.5899C51.3532 52.5899 50.3896 52.236 49.5637 51.5281C48.7771 50.7808 48.3838 49.8566 48.3838 48.7554V28.3436C48.4231 27.2424 48.8361 26.3378 49.6227 25.6299C50.4093 24.8827 51.3532 24.509 52.4544 24.509ZM47.4989 16.8399C47.4989 15.7387 47.9709 14.7948 48.9148 14.0082C49.8587 13.2216 50.9992 12.8283 52.3364 12.8283C53.6736 12.8283 54.8141 13.2216 55.758 14.0082C56.7019 14.7948 57.1738 15.7387 57.1738 16.8399C57.1738 17.9804 56.7019 18.944 55.758 19.7306C54.8141 20.5171 53.6736 20.9104 52.3364 20.9104C50.9992 20.9104 49.8587 20.5171 48.9148 19.7306C47.9709 18.944 47.4989 17.9804 47.4989 16.8399ZM82.3641 24.2141C84.4092 24.2141 86.415 24.45 88.3814 24.922C90.3872 25.3939 92.2946 26.1019 94.1038 27.0457C95.9129 27.9503 97.5057 29.1695 98.8823 30.7033C100.298 32.2372 101.065 34.066 101.183 36.1897V38.6675V48.7554C100.947 51.1151 99.6492 52.3933 97.2894 52.5899C96.1882 52.5899 95.2247 52.236 94.3987 51.5281C93.6122 50.7808 93.2189 49.8566 93.2189 48.7554V46.1596V38.0185C93.1402 36.7993 92.6683 35.7965 91.803 35.0099C90.9771 34.184 90.0332 33.535 88.9713 33.0631C87.9488 32.5911 86.8672 32.2372 85.7267 32.0012C84.6255 31.7652 83.5046 31.6472 82.3641 31.6472C81.2235 31.6472 80.083 31.7652 78.9425 32.0012C77.8412 32.2372 76.7597 32.5911 75.6978 33.0631C74.6753 33.535 73.7314 34.184 72.8661 35.0099C72.0402 35.7965 71.5879 36.7993 71.5093 38.0185V46.1596V48.7554C71.3126 51.1151 70.0344 52.3933 67.6747 52.5899C66.5735 52.5899 65.6099 52.236 64.784 51.5281C63.9974 50.7808 63.6041 49.8566 63.6041 48.7554V38.6675V36.1897C63.7221 34.066 64.4694 32.2372 65.8459 30.7033C67.2224 29.1695 68.8152 27.9503 70.6244 27.0457C72.4335 26.1019 74.3213 25.3939 76.2877 24.922C78.2935 24.45 80.319 24.2141 82.3641 24.2141ZM141.653 17.0758C143.658 17.1152 145.448 17.7444 147.021 18.9636C148.594 20.1828 149.853 21.638 150.797 23.3292C151.78 25.0203 152.507 26.8098 152.979 28.6976C153.451 30.5854 153.687 32.5125 153.687 34.4789C153.687 37.0746 153.274 39.631 152.448 42.1481C151.662 44.6258 150.344 46.8282 148.496 48.7554C146.687 50.6825 144.406 51.7247 141.653 51.882H134.809V55.8346C134.573 58.1943 133.275 59.4725 130.916 59.6692C129.815 59.6692 128.851 59.2955 128.025 58.5483C127.238 57.8404 126.845 56.9358 126.845 55.8346V51.882H119.884C117.131 51.764 114.83 50.7415 112.982 48.8144C111.133 46.8872 109.816 44.6651 109.029 42.1481C108.282 39.631 107.908 37.0746 107.908 34.4789C107.908 31.8832 108.302 29.3465 109.088 26.8688C109.875 24.3517 111.173 22.1296 112.982 20.2025C114.83 18.2361 117.131 17.1938 119.884 17.0758H141.653ZM139.647 43.9769C141.141 43.8982 142.38 43.3476 143.363 42.3251C144.386 41.2632 145.113 40.044 145.546 38.6675C145.979 37.291 146.195 35.8948 146.195 34.4789C146.195 33.0631 145.959 31.6866 145.487 30.3494C145.055 28.9729 144.347 27.7537 143.363 26.6918C142.38 25.6299 141.141 25.0596 139.647 24.981H121.713C120.218 25.0596 118.979 25.6299 117.996 26.6918C117.013 27.7537 116.285 28.9729 115.813 30.3494C115.381 31.6866 115.164 33.0631 115.164 34.4789C115.164 35.8948 115.381 37.291 115.813 38.6675C116.246 40.044 116.954 41.2632 117.937 42.3251C118.96 43.3476 120.218 43.8982 121.713 43.9769H126.845V41.0862C126.885 39.985 127.297 39.0804 128.084 38.3725C128.871 37.6252 129.815 37.2516 130.916 37.2516C131.978 37.291 132.882 37.6842 133.629 38.4315C134.377 39.1394 134.77 40.0243 134.809 41.0862V43.9769H139.647Z" fill="#8287FF"/>
</svg>
