<svg width="24" height="24" viewBox="0 0 24 24" fill="none" xmlns="http://www.w3.org/2000/svg">
<rect width="24" height="24" rx="12" fill="#F87C7C"/>
<g clip-path="url(#clip0_262_3742)">
<path d="M7.33301 13.5242C6.09877 14.0686 5.33301 14.8274 5.33301 15.6666C5.33301 17.3234 8.31778 18.6666 11.9997 18.6666C15.6816 18.6666 18.6663 17.3234 18.6663 15.6666C18.6663 14.8274 17.9006 14.0686 16.6663 13.5242M15.9997 9.33325C15.9997 12.0424 12.9997 13.3333 11.9997 15.3333C10.9997 13.3333 7.99967 12.0424 7.99967 9.33325C7.99967 7.12411 9.79054 5.33325 11.9997 5.33325C14.2088 5.33325 15.9997 7.12411 15.9997 9.33325ZM12.6663 9.33325C12.6663 9.70144 12.3679 9.99992 11.9997 9.99992C11.6315 9.99992 11.333 9.70144 11.333 9.33325C11.333 8.96506 11.6315 8.66659 11.9997 8.66659C12.3679 8.66659 12.6663 8.96506 12.6663 9.33325Z" stroke="white" stroke-width="1.33333" stroke-linecap="round" stroke-linejoin="round"/>
</g>
<defs>
<clipPath id="clip0_262_3742">
<rect width="16" height="16" fill="white" transform="translate(4 4)"/>
</clipPath>
</defs>
</svg>
