<svg width="24" height="24" viewBox="0 0 24 24" fill="none" xmlns="http://www.w3.org/2000/svg">
<rect width="24" height="24" rx="12" fill="#F0F0F0"/>
<g clip-path="url(#clip0_289_1296)">
<path d="M7.33301 13.5243C6.09877 14.0688 5.33301 14.8275 5.33301 15.6667C5.33301 17.3236 8.31778 18.6667 11.9997 18.6667C15.6816 18.6667 18.6663 17.3236 18.6663 15.6667C18.6663 14.8275 17.9006 14.0688 16.6663 13.5243M15.9997 9.33337C15.9997 12.0425 12.9997 13.3334 11.9997 15.3334C10.9997 13.3334 7.99967 12.0425 7.99967 9.33337C7.99967 7.12423 9.79054 5.33337 11.9997 5.33337C14.2088 5.33337 15.9997 7.12423 15.9997 9.33337ZM12.6663 9.33337C12.6663 9.70156 12.3679 10 11.9997 10C11.6315 10 11.333 9.70156 11.333 9.33337C11.333 8.96518 11.6315 8.66671 11.9997 8.66671C12.3679 8.66671 12.6663 8.96518 12.6663 9.33337Z" stroke="#F87C7C" stroke-width="1.33333" stroke-linecap="round" stroke-linejoin="round"/>
</g>
<defs>
<clipPath id="clip0_289_1296">
<rect width="16" height="16" fill="white" transform="translate(4 4)"/>
</clipPath>
</defs>
</svg>
