<svg width="32" height="32" viewBox="0 0 32 32" fill="none" xmlns="http://www.w3.org/2000/svg">
<path d="M15.0429 4.60446C15.3502 3.98188 15.5039 3.67058 15.7125 3.57113C15.8939 3.48459 16.1048 3.48459 16.2863 3.57113C16.4949 3.67058 16.6485 3.98188 16.9559 4.60446L19.8714 10.5111C19.9622 10.6949 20.0075 10.7868 20.0738 10.8581C20.1325 10.9213 20.2029 10.9725 20.2811 11.0089C20.3694 11.0499 20.4708 11.0648 20.6736 11.0944L27.1953 12.0476C27.8821 12.148 28.2255 12.1982 28.3844 12.366C28.5227 12.5119 28.5877 12.7124 28.5614 12.9117C28.5311 13.1408 28.2825 13.3829 27.7853 13.8672L23.0679 18.4619C22.9209 18.6052 22.8474 18.6768 22.7999 18.762C22.7579 18.8374 22.731 18.9203 22.7206 19.006C22.7088 19.1029 22.7262 19.204 22.7609 19.4064L23.874 25.8962C23.9914 26.5807 24.0501 26.9229 23.9397 27.126C23.8438 27.3027 23.6732 27.4267 23.4754 27.4633C23.2482 27.5055 22.9408 27.3438 22.3262 27.0206L16.4959 23.9545C16.3142 23.859 16.2234 23.8112 16.1277 23.7924C16.0429 23.7758 15.9558 23.7758 15.8711 23.7924C15.7754 23.8112 15.6845 23.859 15.5029 23.9545L9.67258 27.0206C9.0579 27.3438 8.75056 27.5055 8.52331 27.4633C8.32559 27.4267 8.15498 27.3027 8.059 27.126C7.94868 26.9229 8.00738 26.5807 8.12478 25.8962L9.23786 19.4064C9.27257 19.204 9.28992 19.1029 9.27818 19.006C9.26778 18.9203 9.24083 18.8374 9.19882 18.762C9.15138 18.6768 9.07785 18.6052 8.9308 18.4619L4.21343 13.8672C3.71623 13.3829 3.46764 13.1408 3.43738 12.9117C3.41106 12.7124 3.47609 12.5119 3.61435 12.366C3.77326 12.1982 4.11664 12.148 4.80341 12.0476L11.3251 11.0944C11.5279 11.0648 11.6293 11.0499 11.7176 11.0089C11.7958 10.9725 11.8662 10.9213 11.9249 10.8581C11.9912 10.7868 12.0366 10.6949 12.1273 10.5111L15.0429 4.60446Z" stroke="#C6C6C6" stroke-width="2.66667" stroke-linecap="round" stroke-linejoin="round"/>
</svg>
