<svg width="55" height="54" viewBox="0 0 55 54" fill="none" xmlns="http://www.w3.org/2000/svg">
<path d="M37.625 5.625L48.875 16.875M48.875 5.625L37.625 16.875M28.625 6.75H18.05C14.2696 6.75 12.3795 6.75 10.9356 7.48571C9.66547 8.13285 8.63285 9.16547 7.98571 10.4356C7.25 11.8795 7.25 13.7696 7.25 17.55V36.45C7.25 40.2304 7.25 42.1205 7.98571 43.5644C8.63285 44.8345 9.66547 45.8671 10.9356 46.5143C12.3795 47.25 14.2696 47.25 18.05 47.25H38.75C40.8424 47.25 41.8887 47.25 42.747 47.02C45.0764 46.3958 46.8958 44.5764 47.52 42.247C47.75 41.3887 47.75 40.3424 47.75 38.25M24.125 19.125C24.125 21.6103 22.1103 23.625 19.625 23.625C17.1397 23.625 15.125 21.6103 15.125 19.125C15.125 16.6397 17.1397 14.625 19.625 14.625C22.1103 14.625 24.125 16.6397 24.125 19.125ZM34.2276 26.8158L15.1951 44.1181C14.1246 45.0913 13.5893 45.5779 13.542 45.9994C13.5009 46.3648 13.641 46.7272 13.9172 46.9699C14.2358 47.25 14.9591 47.25 16.4059 47.25H37.526C40.7641 47.25 42.3831 47.25 43.6548 46.706C45.2512 46.0231 46.5231 44.7512 47.206 43.1548C47.75 41.8831 47.75 40.2641 47.75 37.026C47.75 35.9364 47.75 35.3917 47.6309 34.8843C47.4812 34.2468 47.1942 33.6496 46.7898 33.1344C46.4681 32.7245 46.0427 32.3841 45.1919 31.7035L38.8981 26.6685C38.0466 25.9873 37.6209 25.6467 37.152 25.5265C36.7388 25.4206 36.3039 25.4343 35.8982 25.5661C35.4379 25.7156 35.0344 26.0823 34.2276 26.8158Z" stroke="#C6C6C6" stroke-width="4.5" stroke-linecap="round" stroke-linejoin="round"/>
</svg>
