<svg width="18" height="18" viewBox="0 0 18 18" fill="none" xmlns="http://www.w3.org/2000/svg">
<path d="M9.00013 11.25C6.62257 11.25 4.50823 12.398 3.16213 14.1795C2.87241 14.5629 2.72755 14.7546 2.73229 15.0137C2.73595 15.2139 2.86165 15.4664 3.01916 15.59C3.22302 15.75 3.50553 15.75 4.07056 15.75H13.9297C14.4947 15.75 14.7772 15.75 14.9811 15.59C15.1386 15.4664 15.2643 15.2139 15.268 15.0137C15.2727 14.7546 15.1279 14.5629 14.8381 14.1795C13.492 12.398 11.3777 11.25 9.00013 11.25Z" stroke="#979799" stroke-width="1.5" stroke-linecap="round" stroke-linejoin="round"/>
<path d="M9.00013 9C10.8641 9 12.3751 7.48896 12.3751 5.625C12.3751 3.76104 10.8641 2.25 9.00013 2.25C7.13617 2.25 5.62513 3.76104 5.62513 5.625C5.62513 7.48896 7.13617 9 9.00013 9Z" stroke="#979799" stroke-width="1.5" stroke-linecap="round" stroke-linejoin="round"/>
</svg>
